<svg id="logo-obladen-media-horizontal" xmlns="http://www.w3.org/2000/svg" viewBox="0 0 360 70"><path d="M70.23,34.82c0-7.73,5.91-13.49,13.94-13.49s13.91,5.72,13.91,13.49-6,13.48-13.91,13.48S70.23,42.54,70.23,34.82Zm25,0a11.14,11.14,0,0,0-22.27,0,11.14,11.14,0,0,0,22.27,0ZM124,38.11c0,6-4.25,10.15-9.93,10.15a8.63,8.63,0,0,1-7.69-4.12v3.94h-2.58V20h2.69v12A8.71,8.71,0,0,1,114.06,28C119.74,28,124,32.09,124,38.11Zm-2.69,0c0-4.66-3.22-7.76-7.43-7.76s-7.42,3.1-7.42,7.76,3.18,7.77,7.42,7.77S121.3,42.77,121.3,38.11ZM129.48,20h2.69V48.08h-2.69Zm25.23,15.76V48.08h-2.58V45c-1.21,2-3.56,3.29-6.86,3.29-4.51,0-7.27-2.34-7.27-5.79,0-3.07,2-5.65,7.69-5.65H152V35.61c0-3.41-1.94-5.26-5.65-5.26a10.14,10.14,0,0,0-6.63,2.34l-1.21-2A12.62,12.62,0,0,1,146.64,28C151.79,28,154.71,30.57,154.71,35.72ZM152,42.09V38.83h-6.26c-3.86,0-5.11,1.52-5.11,3.56,0,2.31,1.86,3.75,5,3.75A6.38,6.38,0,0,0,152,42.09ZM180.28,20V48.08H177.7V44.14A8.62,8.62,0,0,1,170,48.26c-5.68,0-9.93-4.12-9.93-10.15S164.33,28,170,28a8.71,8.71,0,0,1,7.58,3.94V20Zm-2.66,18.15c0-4.66-3.18-7.76-7.38-7.76s-7.43,3.1-7.43,7.76,3.18,7.77,7.43,7.77S177.62,42.77,177.62,38.11Zm27.51.84H188.46c.3,4.16,3.48,6.93,7.84,6.93a7.85,7.85,0,0,0,6.1-2.62L203.91,45a9.8,9.8,0,0,1-7.69,3.25c-6.21,0-10.45-4.24-10.45-10.15S189.9,28,195.5,28s9.66,4.13,9.66,10.11C205.16,38.34,205.13,38.64,205.13,39Zm-16.67-2h14.13a7.08,7.08,0,0,0-14.13,0ZM229,36.52V48.08H226.3V36.79c0-4.21-2.2-6.37-6-6.37-4.28,0-7,2.65-7,7.2V48.08h-2.69V28.15h2.58v3.67c1.44-2.42,4.13-3.82,7.58-3.82C225.66,28,229,30.8,229,36.52Zm30.84,11.56,0-15.92L252,45.27h-2.76L241.45,32.5V48.08h-5.76V21.56h5.08L250.69,38l9.78-16.48h5l.07,26.52Zm31.47-8.53H275.88c.57,2.54,2.73,4.09,5.84,4.09a6.88,6.88,0,0,0,5.11-2L290,45.08c-1.9,2.16-4.74,3.3-8.41,3.3-7.05,0-11.64-4.43-11.64-10.5s4.67-10.49,10.88-10.49c6,0,10.61,4,10.61,10.57C291.42,38.41,291.34,39.06,291.3,39.55ZM275.81,36.1h10a5.09,5.09,0,0,0-10,0ZM316.11,20V48.08h-5.64V45.73a7.84,7.84,0,0,1-6.36,2.65c-5.76,0-10.2-4.09-10.2-10.5s4.44-10.49,10.2-10.49a7.84,7.84,0,0,1,6.09,2.46V20Zm-5.79,17.92c0-3.52-2.27-5.64-5.19-5.64s-5.23,2.12-5.23,5.64,2.27,5.65,5.23,5.65S310.32,41.41,310.32,37.88Zm10.53-16.32a3.37,3.37,0,0,1,3.67-3.3c2.2,0,3.68,1.36,3.68,3.18a3.69,3.69,0,0,1-7.35.12Zm.71,6.13h5.91V48.08h-5.91ZM351,36.44V48.08h-5.53V45.54c-1.1,1.85-3.22,2.84-6.21,2.84-4.78,0-7.62-2.65-7.62-6.18s2.54-6.1,8.75-6.1h4.7c0-2.54-1.52-4-4.7-4A9.82,9.82,0,0,0,334.52,34l-2.12-4.13a15.66,15.66,0,0,1,8.79-2.46C347.4,27.39,351,30.27,351,36.44Zm-5.91,5.19V39.55h-4c-2.77,0-3.64,1-3.64,2.39s1.25,2.46,3.33,2.46A4.36,4.36,0,0,0,345.09,41.63ZM45.66,50l6.08,3.32c-8.91,9.17-26,9.16-34.88,0L22.94,50a18.8,18.8,0,0,0,22.72,0ZM34.3,16.15A18.72,18.72,0,0,1,45.66,20l6.08-3.32c-8.91-9.17-26-9.17-34.88,0L22.94,20A18.7,18.7,0,0,1,34.3,16.15ZM58.56,27.7a25.3,25.3,0,0,0-2.68-5.94l-5.69,3.11s0,0,0,0l-15.9,8.7-15.9-8.7s0,0,0,0l-5.69-3.11a25.44,25.44,0,0,0,0,26.48l5.7-3.12A18.81,18.81,0,0,1,15.9,30.91C19,32.59,31.48,39.44,34.3,41L52.7,30.91a18.86,18.86,0,0,1-2.51,14.21l5.7,3.12A25.5,25.5,0,0,0,58.56,27.7Z" style="fill:#40454d"/></svg>