<svg xmlns="http://www.w3.org/2000/svg" viewBox="0 0 145 145"><g id="logo-obladen-media-signet"><path d="M103.89,114.07l16.8,9.18c-24.63,25.36-71.82,25.34-96.46,0l16.82-9.18a52,52,0,0,0,62.84,0ZM72.46,20.37a51.76,51.76,0,0,1,31.43,10.56l16.8-9.19C96.06-3.6,48.87-3.6,24.23,21.74l16.82,9.19A51.7,51.7,0,0,1,72.46,20.37Zm67.09,32a69.91,69.91,0,0,0-7.4-16.44l-15.74,8.61,0,0-44,24.05-44-24.05s0,0,0,0l-15.74-8.6C-1,57.35-.82,87.94,12.77,109.1l15.74-8.61a52.15,52.15,0,0,1-6.93-39.31C30.07,65.83,64.67,84.77,72.46,89l50.9-27.83a52.15,52.15,0,0,1-7,39.31l15.76,8.61C142.33,93.16,145.41,70.81,139.55,52.32Z" style="fill:#40454d"/></g></svg>