<svg xmlns="http://www.w3.org/2000/svg" viewBox="0 0 295 295"><g id="logo-obladen-media-vertical"><path d="M28.22,151.93c0-6.57,5-11.46,11.85-11.46s11.81,4.86,11.81,11.46-5.05,11.46-11.81,11.46S28.22,158.5,28.22,151.93Zm21.28,0a9.12,9.12,0,0,0-9.43-9.33,9.34,9.34,0,1,0,0,18.67A9.13,9.13,0,0,0,49.5,151.93Zm24.39,2.8a8.22,8.22,0,0,1-8.43,8.63,7.34,7.34,0,0,1-6.53-3.51v3.35H56.74V139.31H59v10.17a7.42,7.42,0,0,1,6.44-3.34A8.18,8.18,0,0,1,73.89,154.73Zm-2.28,0a6.22,6.22,0,0,0-6.31-6.6c-3.6,0-6.31,2.64-6.31,6.6s2.71,6.6,6.31,6.6A6.22,6.22,0,0,0,71.61,154.73Zm7-15.42h2.29V163.2H78.56ZM100,152.7v10.5H97.81v-2.64c-1,1.74-3,2.8-5.83,2.8-3.83,0-6.18-2-6.18-4.93,0-2.6,1.68-4.79,6.54-4.79h5.37v-1c0-2.9-1.64-4.48-4.8-4.48a8.61,8.61,0,0,0-5.63,2l-1-1.71a10.75,10.75,0,0,1,6.89-2.28C97.52,146.14,100,148.33,100,152.7Zm-2.29,5.41v-2.77H92.4c-3.28,0-4.35,1.29-4.35,3,0,2,1.58,3.18,4.29,3.18A5.41,5.41,0,0,0,97.71,158.11Zm24-18.8V163.2h-2.19v-3.35a7.34,7.34,0,0,1-6.53,3.51,8.61,8.61,0,0,1,0-17.22,7.42,7.42,0,0,1,6.44,3.34V139.31Zm-2.25,15.42c0-4-2.7-6.6-6.28-6.6s-6.31,2.64-6.31,6.6,2.71,6.6,6.31,6.6S119.47,158.69,119.47,154.73Zm23.37.71H128.67c.26,3.54,3,5.89,6.67,5.89a6.67,6.67,0,0,0,5.18-2.22l1.29,1.48a8.37,8.37,0,0,1-6.54,2.77c-5.28,0-8.88-3.61-8.88-8.63s3.5-8.59,8.27-8.59,8.21,3.51,8.21,8.59C142.87,154.92,142.84,155.18,142.84,155.44Zm-14.17-1.71h12a6,6,0,0,0-12,0Zm34.44-.35v9.82h-2.28v-9.6c0-3.57-1.87-5.4-5.09-5.4-3.64,0-5.92,2.25-5.92,6.11v8.89h-2.29V146.27h2.19v3.12a7.11,7.11,0,0,1,6.44-3.25C160.28,146.14,163.11,148.52,163.11,153.38Zm26.2,9.82,0-13.52-6.63,11.13H180.3L173.7,150V163.2h-4.89V140.66h4.31l8.43,14,8.31-14h4.28l.06,22.54ZM216.05,156H203c.49,2.16,2.32,3.48,5,3.48a5.89,5.89,0,0,0,4.35-1.67l2.67,2.89c-1.61,1.84-4,2.8-7.15,2.8-6,0-9.88-3.76-9.88-8.91s4-8.92,9.24-8.92c5.08,0,9,3.41,9,9C216.15,155,216.09,155.54,216.05,156ZM202.89,153h8.53a4.33,4.33,0,0,0-8.53,0Zm34.25-13.71V163.2h-4.8v-2a6.68,6.68,0,0,1-5.41,2.25c-4.89,0-8.66-3.47-8.66-8.91s3.77-8.92,8.66-8.92a6.65,6.65,0,0,1,5.18,2.09v-8.4Zm-4.93,15.23c0-3-1.93-4.8-4.41-4.8s-4.44,1.8-4.44,4.8,1.93,4.79,4.44,4.79S232.21,157.53,232.21,154.54Zm8.95-13.88a2.87,2.87,0,0,1,3.12-2.8,2.82,2.82,0,0,1,3.12,2.71,3.13,3.13,0,0,1-6.24.09Zm.61,5.22h5V163.2h-5Zm25,7.43v9.89h-4.7V161c-.93,1.58-2.74,2.41-5.28,2.41-4.06,0-6.47-2.25-6.47-5.24s2.16-5.19,7.43-5.19h4c0-2.15-1.29-3.41-4-3.41a8.28,8.28,0,0,0-5,1.61L251,147.71a13.33,13.33,0,0,1,7.47-2.09C263.72,145.62,266.78,148.07,266.78,153.31Zm-5,4.41V156h-3.45c-2.35,0-3.09.87-3.09,2s1.07,2.09,2.83,2.09A3.7,3.7,0,0,0,261.76,157.72ZM159.17,114.58l5.16,2.83c-7.56,7.79-22.06,7.78-29.63,0l5.16-2.83a16,16,0,0,0,19.31,0ZM149.51,85.8A15.91,15.91,0,0,1,159.17,89l5.16-2.82c-7.57-7.79-22.06-7.78-29.63,0L139.86,89A15.9,15.9,0,0,1,149.51,85.8Zm20.61,9.81a21.09,21.09,0,0,0-2.27-5L163,93.21a0,0,0,0,1,0,0l-13.52,7.38L136,93.23s0,0,0,0l-4.84-2.64a21.62,21.62,0,0,0,0,22.49l4.84-2.65a16,16,0,0,1-2.13-12.07l15.63,8.55,15.64-8.55A16,16,0,0,1,163,110.41l4.84,2.65A21.62,21.62,0,0,0,170.12,95.61Z" style="fill:#40454d"/></g></svg>